<svg width="40" height="40" viewBox="0 0 40 40" fill="none" xmlns="http://www.w3.org/2000/svg">
<circle cx="20" cy="20" r="20" fill="#FF5560"/>
<path fill-rule="evenodd" clip-rule="evenodd" d="M14.0021 28C12.3449 28 11 26.6554 11 25C11 23.9012 11.5949 22.9219 12.5042 22.3989C12.5042 22.0954 12.5 18.4986 12.5 18.4986C12.5 15.0431 14.8197 12.1339 18 11.2647C18 11.2647 18 11.0897 18 11C18 9.89543 18.8954 9 20 9C21.1046 9 22 9.89543 22 11C22 11.0897 22 11.2647 22 11.2647C25.181 12.1337 27.5 15.0432 27.5 18.5038V22.4076C28.4104 22.9331 29 23.9084 29 25C29 26.6576 27.657 28 25.9979 28H23C22.9983 29.6571 21.6524 31 20 31C18.3431 31 17 29.6582 17 28.0021L14.0021 28ZM19 28C19 28.5532 19.4472 29 20 29C20.5489 29 20.9983 28.5515 21 28H19ZM25.5 23.3361V18.5038C25.5 15.4607 23.0394 13 20 13C16.9619 13 14.5 15.4616 14.5 18.4986V23.3361C14.5 23.6158 14.2852 23.8937 14.0203 23.9619L13.7493 24.0317C13.3115 24.1444 13 24.5409 13 25C13 25.5507 13.4494 26 14.0021 26H25.9979C26.5526 26 27 25.5528 27 25C27 24.5429 26.6872 24.1448 26.2497 24.0317L25.9875 23.9639C25.7209 23.895 25.5 23.6132 25.5 23.3361Z" fill="white"/>
</svg>
