<svg width="40" height="40" viewBox="0 0 40 40" fill="none" xmlns="http://www.w3.org/2000/svg">
<circle cx="20" cy="20" r="20" fill="#DB5FFC"/>
<path fill-rule="evenodd" clip-rule="evenodd" d="M19.3 12.8H14.7959L14.8 27.2L25.5981 27.2C25.5981 27.2 25.6001 21.9545 25.6 19.1H20.2C19.7029 19.1 19.3 18.697 19.3 18.2V12.8ZM21.1 17.3H25.6L21.1 12.8V17.3ZM14.7959 11H21.3725C21.6208 11 21.9656 11.1435 22.138 11.316L27.0841 16.264C27.2586 16.4385 27.4 16.7852 27.4 17.0293V27.2007C27.4 28.1944 26.5949 29 25.5981 29H14.8019C13.8067 29 13 28.1916 13 27.2V12.8C13 11.8059 13.8063 11 14.7959 11ZM15.7 24.5C15.7 24.0029 16.1042 23.6 16.5959 23.6H23.8041C24.2989 23.6 24.7 23.9995 24.7 24.5C24.7 24.997 24.2958 25.4 23.8041 25.4H16.5959C16.1011 25.4 15.7 25.0005 15.7 24.5ZM15.7 21.8C15.7 21.303 16.1059 20.9 16.6038 20.9H20.1962C20.6953 20.9 21.1 21.2995 21.1 21.8C21.1 22.2971 20.6941 22.7 20.1962 22.7H16.6038C16.1047 22.7 15.7 22.3005 15.7 21.8Z" fill="white"/>
</svg>
