<svg width="25" height="20" viewBox="0 0 25 20" fill="none" xmlns="http://www.w3.org/2000/svg">
<path fill-rule="evenodd" clip-rule="evenodd" d="M14.4445 11.5714L13.0079 13.0079C12.574 13.4418 11.8705 13.4418 11.4366 13.0079L10 11.5714L3.79004 17.7813L20.651 17.7779L14.4445 11.5714ZM22.2223 3.79352L16.0158 10L22.2219 16.2061L22.2223 3.79352ZM8.42865 10L2.22251 3.79386L2.22217 16.2065L8.42865 10ZM12.2222 10.6876L20.6594 2.21865L3.78839 2.2221L12.2222 10.6876ZM2.22323 0H22.2212C23.4491 0 24.4444 0.991803 24.4444 2.21677V17.7832C24.4444 19.0075 23.4483 20 22.2212 20H2.22323C0.995373 20 0 19.0082 0 17.7832V2.21677C0 0.99248 0.996162 0 2.22323 0Z" fill="#8F99A1"/>
</svg>
