<svg width="20" height="20" viewBox="0 0 20 20" fill="none" xmlns="http://www.w3.org/2000/svg">
<path fill-rule="evenodd" clip-rule="evenodd" d="M9 9V5.9954C9 5.44565 9.44386 5 10 5C10.5523 5 11 5.44911 11 5.9954V9H14.0046C14.5543 9 15 9.44386 15 10C15 10.5523 14.5509 11 14.0046 11H11V14.0046C11 14.5543 10.5561 15 10 15C9.44771 15 9 14.5509 9 14.0046V11H5.9954C5.44565 11 5 10.5561 5 10C5 9.44771 5.44911 9 5.9954 9H9ZM10 20C4.47715 20 0 15.5228 0 10C0 4.47715 4.47715 0 10 0C15.5228 0 20 4.47715 20 10C20 15.5228 15.5228 20 10 20ZM10 18C14.4183 18 18 14.4183 18 10C18 5.58172 14.4183 2 10 2C5.58172 2 2 5.58172 2 10C2 14.4183 5.58172 18 10 18Z" fill="#AFB8BF"/>
</svg>
