<svg width="19" height="20" viewBox="0 0 19 20" fill="none" xmlns="http://www.w3.org/2000/svg">
<path fill-rule="evenodd" clip-rule="evenodd" d="M19 13.3864C19 16.9637 16.1 19.8636 12.5227 19.8636C10.3242 19.8636 8.38153 18.7683 7.2106 17.0936L6.04814 16.5124L4.70565 17.1815C4.46255 17.3031 4.17636 17.3032 3.93319 17.1816L2.59336 16.5121L1.24987 17.1816C0.675634 17.4687 0 17.0511 0 16.4091V1.72715C0 0.772499 0.771431 0 1.72803 0H13.8174C14.772 0 15.5455 0.771182 15.5455 1.72715V7.65618C17.6 8.74219 19 10.9008 19 13.3864ZM13.8174 1.72724L1.72727 1.72711V15.0104L2.20468 14.773C2.44775 14.6514 2.73385 14.6514 2.97695 14.7729L4.32683 15.4465L5.65904 14.7731C5.82108 14.692 6.00226 14.6649 6.17708 14.6919C6.09078 14.2702 6.04545 13.8335 6.04545 13.3863C6.04545 12.9427 6.09006 12.5094 6.17502 12.0909H4.31855C3.84137 12.0909 3.45454 11.7075 3.45454 11.2272C3.45454 10.7503 3.84388 10.3636 4.31855 10.3636H6.79254C7.87856 8.3091 10.0371 6.90906 12.5227 6.90906C12.9671 6.90906 13.401 6.9538 13.8202 7.03904C13.8193 4.21586 13.8174 1.72724 13.8174 1.72724ZM3.45454 7.77276C3.45454 7.29578 3.83744 6.90912 4.31736 6.90912H6.04627C6.52279 6.90912 6.90909 7.29246 6.90909 7.77276C6.90909 8.24973 6.52619 8.63639 6.04627 8.63639H4.31736C3.84084 8.63639 3.45454 8.25305 3.45454 7.77276ZM3.45454 4.31817C3.45454 3.84119 3.84241 3.45453 4.31421 3.45453H11.2312C11.706 3.45453 12.0909 3.83787 12.0909 4.31817C12.0909 4.79514 11.703 5.1818 11.2312 5.1818H4.31421C3.83943 5.1818 3.45454 4.79846 3.45454 4.31817ZM12.5227 18.1364C15.1461 18.1364 17.2727 16.0097 17.2727 13.3864C17.2727 10.763 15.1461 8.63635 12.5227 8.63635C9.89937 8.63635 7.77273 10.763 7.77273 13.3864C7.77273 16.0097 9.89937 18.1364 12.5227 18.1364ZM11.0484 16.1561L9.32131 14.4289C8.98406 14.0916 8.98409 13.5447 9.32138 13.2075C9.65868 12.8702 10.2055 12.8703 10.5428 13.2076L11.6692 14.3341L14.503 11.4802C14.8402 11.143 15.387 11.143 15.7243 11.4802C16.0616 11.8175 16.0616 12.3643 15.7243 12.7016L12.2698 16.1562C11.9325 16.4934 11.3856 16.4934 11.0484 16.1561Z" fill="white"/>
</svg>
