<svg width="17" height="17" viewBox="0 0 17 17" fill="none" xmlns="http://www.w3.org/2000/svg">
<path fill-rule="evenodd" clip-rule="evenodd" d="M15.8997 12.5769C16.2308 12.8035 16.3163 13.2546 16.087 13.5895C15.8593 13.9221 15.4069 14.0083 15.0752 13.7813L10.4517 10.6161C9.676 11.4771 8.62182 12.0997 7.39478 12.3294C4.42345 12.8858 1.56371 10.9281 1.00736 7.95674C0.45101 4.98541 2.40874 2.12567 5.38006 1.56932C8.35139 1.01297 11.2111 2.97069 11.7675 5.94202C11.9972 7.16906 11.7982 8.37707 11.2762 9.41169L15.8997 12.5769ZM7.12616 10.8947C9.30513 10.4868 10.7408 8.38961 10.3328 6.21064C9.92482 4.03167 7.82767 2.596 5.6487 3.00399C3.46973 3.41198 2.03406 5.50913 2.44205 7.6881C2.85004 9.86707 4.94719 11.3027 7.12616 10.8947Z" fill="#8F99A1"/>
</svg>
